<!DOCTYPE svg PUBLIC "-//W3C//DTD SVG 20010904//EN" "http://www.w3.org/TR/2001/REC-SVG-20010904/DTD/svg10.dtd">
<svg version="1.0" xmlns="http://www.w3.org/2000/svg" width="977px" height="749px" viewBox="0 0 9770 7490" preserveAspectRatio="xMidYMid meet">
<g id="layer1" fill="#000000" stroke="none">
 <path d="M2115 6940 c-3 -5 -35 -10 -70 -10 -35 0 -67 -4 -70 -10 -3 -5 -39 -10 -80 -10 -41 0 -77 -4 -80 -10 -3 -5 -35 -10 -70 -10 -35 0 -67 -4 -70 -10 -3 -5 -35 -10 -70 -10 -35 0 -67 -4 -70 -10 -3 -5 -39 -10 -80 -10 -41 0 -77 -4 -80 -10 -3 -5 -26 -10 -50 -10 -24 0 -47 -4 -50 -10 -3 -5 -15 -10 -25 -10 -11 0 -35 -9 -55 -20 -20 -11 -44 -20 -55 -20 -10 0 -22 -4 -25 -10 -3 -5 -14 -10 -24 -10 -36 0 -73 -29 -97 -76 -13 -26 -24 -55 -24 -65 0 -10 -4 -21 -10 -24 -5 -3 -10 -14 -10 -25 0 -10 -10 -36 -21 -58 -36 -66 -27 -72 105 -72 66 0 117 -4 121 -10 4 -6 88 -10 220 -10 132 0 216 -4 220 -10 4 -6 88 -10 219 -10 122 0 216 -4 222 -10 5 -5 54 -11 109 -12 l100 -3 2 -325 c2 -199 7 -333 13 -345 7 -13 9 -138 8 -350 l-3 -330 -40 -3 c-22 -2 -44 -8 -50 -13 -5 -5 -50 -9 -100 -9 -50 0 -95 -4 -100 -9 -6 -6 -34 -11 -64 -13 -30 -2 -56 -8 -58 -15 -2 -6 266 -282 596 -612 331 -331 601 -606 601 -611 0 -16 1188 -1200 1204 -1200 8 0 40 14 71 30 31 17 63 30 71 30 7 0 29 9 49 20 20 11 42 20 49 20 8 0 40 14 71 30 31 17 63 30 70 30 7 0 39 14 70 30 31 17 63 30 71 30 7 0 29 9 49 20 20 11 42 20 49 20 8 0 40 14 71 30 31 17 63 30 71 30 7 0 29 9 49 20 20 11 42 20 49 20 8 0 40 14 71 30 31 17 63 30 70 30 7 0 39 14 70 30 31 17 63 30 71 30 7 0 29 9 49 20 20 11 42 20 49 20 8 0 40 14 71 30 31 17 63 30 70 30 7 0 39 14 70 30 31 17 63 30 71 30 7 0 29 9 49 20 20 11 41 20 49 20 7 0 35 11 62 25 27 14 54 25 60 25 6 0 69 -115 139 -256 71 -141 133 -261 139 -267 16 -16 246 -480 246 -495 0 -14 -26 -16 -35 -2 -3 6 -39 10 -80 10 -41 0 -77 5 -80 10 -3 6 -39 10 -80 10 -41 0 -77 5 -80 10 -3 6 -35 10 -70 10 -35 0 -67 5 -70 10 -3 6 -21 10 -40 10 -19 0 -37 5 -40 10 -3 5 -19 10 -34 10 -16 0 -63 18 -106 40 -43 22 -83 40 -90 40 -7 0 -47 18 -90 40 -43 22 -83 40 -89 40 -6 0 -48 18 -93 41 -45 23 -89 39 -98 36 -17 -7 -21 -42 -5 -52 6 -3 10 -21 10 -40 0 -19 5 -37 10 -40 6 -3 10 -21 10 -40 0 -19 5 -37 10 -40 6 -3 10 -21 10 -40 0 -19 5 -37 10 -40 6 -3 10 -26 10 -50 0 -24 5 -47 10 -50 6 -3 10 -30 10 -60 0 -30 5 -57 10 -60 6 -3 10 -17 10 -30 0 -31 201 -235 256 -261 22 -10 48 -26 58 -36 11 -10 26 -18 33 -18 7 0 13 -4 13 -8 0 -5 21 -20 48 -33 26 -13 49 -27 52 -31 10 -13 122 -68 140 -68 11 0 22 -4 25 -10 3 -5 15 -10 25 -10 11 0 35 -9 55 -20 20 -11 44 -20 55 -20 10 0 22 -4 25 -10 8 -13 142 -13 150 0 3 6 52 10 110 10 58 0 107 4 110 10 3 6 19 10 36 10 22 0 29 -5 29 -19 0 -11 -4 -23 -10 -26 -5 -3 -10 -15 -10 -25 0 -38 -46 -103 -91 -128 -24 -13 -46 -27 -49 -31 -3 -3 -26 -17 -52 -30 -27 -13 -48 -28 -48 -33 0 -4 -6 -8 -13 -8 -7 0 -22 -8 -33 -18 -10 -10 -36 -25 -56 -35 -20 -10 -43 -23 -50 -30 -21 -19 -139 -77 -159 -77 -10 0 -21 -4 -24 -10 -3 -5 -17 -10 -30 -10 -13 0 -27 -4 -30 -10 -3 -5 -21 -10 -40 -10 -19 0 -37 -5 -40 -10 -3 -6 -17 -10 -30 -10 -13 0 -27 -5 -30 -10 -3 -6 -14 -10 -24 -10 -18 0 -81 -28 -81 -35 0 -12 45 -82 61 -96 11 -9 19 -21 19 -26 0 -6 12 -23 28 -40 15 -16 32 -38 38 -48 16 -28 64 -53 101 -54 17 -1 35 -5 38 -11 3 -5 17 -10 30 -10 13 0 27 -4 30 -10 3 -5 17 -10 30 -10 13 0 27 -4 30 -10 3 -5 21 -10 40 -10 19 0 37 -4 40 -10 3 -5 17 -10 30 -10 13 0 27 -4 30 -10 8 -13 262 -13 270 0 3 6 53 10 114 10 l107 0 154 78 c154 77 187 104 189 154 1 10 10 33 21 53 11 20 20 44 20 55 0 10 4 22 10 25 6 3 10 15 10 25 0 11 9 35 20 55 11 20 20 43 20 51 0 28 47 7 101 -46 28 -28 55 -50 60 -50 5 0 32 -22 60 -50 28 -27 56 -50 61 -50 6 0 18 -8 27 -19 25 -29 88 -61 121 -61 16 0 32 -4 35 -10 3 -5 17 -10 30 -10 13 0 27 -5 30 -10 3 -6 17 -10 30 -10 13 0 27 -4 30 -10 3 -5 21 -10 40 -10 19 0 37 -4 40 -10 3 -5 17 -10 30 -10 13 0 27 -5 30 -10 8 -14 422 -14 430 0 3 6 15 10 25 10 11 0 35 9 55 20 20 11 44 20 55 20 10 0 22 4 25 10 3 5 15 10 25 10 11 0 35 9 55 20 20 11 42 20 50 20 8 0 30 9 50 20 46 26 367 348 362 364 -5 15 -77 20 -90 7 -14 -14 -443 -15 -452 -1 -3 5 -30 10 -60 10 -30 0 -57 4 -60 10 -3 5 -26 10 -50 10 -24 0 -47 5 -50 10 -3 6 -30 10 -60 10 -30 0 -57 5 -60 10 -3 6 -15 10 -26 10 -10 0 -38 18 -60 40 -23 22 -47 40 -54 40 -10 0 -25 20 -25 34 0 2 29 18 65 36 36 18 65 37 65 41 0 5 6 9 13 9 7 0 22 8 33 18 10 9 40 28 67 41 26 13 47 28 47 33 0 4 6 8 14 8 7 0 32 18 55 40 22 22 45 40 50 40 5 0 41 32 80 70 39 39 75 70 80 70 5 0 30 21 55 46 43 43 46 49 46 99 0 30 5 57 10 60 6 3 10 52 10 110 0 58 4 107 10 110 13 8 14 542 1 549 -11 7 -91 -34 -91 -46 0 -4 -6 -8 -13 -8 -7 0 -22 -8 -33 -17 -10 -10 -31 -24 -46 -32 -16 -8 -28 -18 -28 -23 0 -4 -6 -8 -14 -8 -7 0 -26 -12 -42 -27 -16 -16 -42 -34 -57 -42 -15 -8 -27 -18 -27 -23 0 -4 -6 -8 -13 -8 -7 0 -23 -9 -35 -20 -12 -11 -25 -20 -30 -20 -4 0 -17 -8 -28 -18 -22 -20 -324 -172 -342 -172 -9 0 -12 54 -12 219 0 136 -4 222 -10 226 -6 4 -10 75 -10 180 0 105 -4 176 -10 180 -5 3 -10 17 -10 30 0 13 -4 27 -10 30 -5 3 -10 21 -10 40 0 19 -4 37 -10 40 -5 3 -10 17 -10 30 0 13 -4 27 -10 30 -5 3 -10 17 -10 30 0 13 -4 27 -10 30 -6 3 -10 17 -10 30 0 13 -4 27 -10 30 -6 3 -10 17 -10 30 0 13 -4 27 -10 30 -5 3 -10 21 -10 40 0 19 -4 37 -10 40 -5 3 -10 17 -10 30 0 13 -4 27 -10 30 -5 3 -10 14 -10 24 0 23 -29 81 -40 81 -11 0 -40 -58 -40 -81 0 -10 -4 -21 -10 -24 -6 -3 -10 -21 -10 -40 0 -19 -4 -37 -10 -40 -6 -3 -10 -17 -10 -30 0 -13 -4 -27 -10 -30 -6 -3 -10 -17 -10 -30 0 -13 -4 -27 -10 -30 -5 -3 -10 -17 -10 -30 0 -13 -4 -27 -10 -30 -5 -3 -10 -21 -10 -40 0 -19 -5 -37 -10 -40 -6 -3 -10 -17 -10 -30 0 -13 -4 -27 -10 -30 -6 -3 -10 -17 -10 -30 0 -13 -5 -27 -10 -30 -6 -3 -10 -17 -10 -30 0 -13 -4 -27 -10 -30 -5 -3 -10 -21 -10 -40 0 -19 -4 -37 -10 -40 -5 -3 -10 -17 -10 -30 0 -13 -4 -27 -10 -30 -6 -3 -10 -17 -10 -30 0 -13 -4 -27 -10 -30 -6 -3 -10 -17 -10 -30 0 -13 -4 -27 -10 -30 -6 -3 -10 -21 -10 -40 0 -19 -4 -37 -10 -40 -6 -3 -10 -17 -10 -30 0 -13 -5 -27 -10 -30 -6 -3 -10 -17 -10 -30 0 -13 -4 -27 -10 -30 -5 -3 -10 -17 -10 -30 0 -13 -4 -27 -10 -30 -5 -3 -10 -17 -10 -30 0 -13 -4 -27 -10 -30 -6 -3 -10 -17 -10 -30 0 -13 -4 -27 -10 -30 -5 -3 -10 -17 -10 -29 0 -37 -67 -96 -110 -96 -4 0 -15 16 -24 35 -9 19 -22 40 -29 47 -7 7 -23 34 -36 61 -13 26 -28 47 -33 47 -4 0 -8 6 -8 13 0 7 -8 22 -18 33 -10 10 -25 36 -35 56 -10 20 -23 43 -30 50 -7 7 -21 30 -30 50 -10 20 -23 43 -30 50 -7 7 -21 30 -30 50 -10 20 -23 43 -30 50 -7 7 -23 34 -36 61 -13 26 -28 47 -33 47 -4 0 -8 6 -8 13 0 7 -8 22 -18 33 -10 10 -25 36 -35 56 -10 20 -23 43 -30 50 -7 7 -21 30 -30 50 -10 20 -23 43 -30 50 -7 7 -23 34 -36 61 -13 26 -28 47 -33 47 -4 0 -8 6 -8 13 0 7 -8 22 -18 33 -10 10 -25 36 -35 56 -10 20 -23 43 -30 50 -48 53 -47 88 3 139 22 23 40 45 40 50 0 5 41 50 90 100 50 49 90 94 90 100 0 5 41 50 90 100 50 49 90 94 90 100 0 5 45 54 100 109 55 56 100 105 100 110 0 6 40 51 90 101 49 49 90 94 90 100 0 5 41 50 90 100 50 49 90 94 90 100 0 5 23 32 50 60 28 29 49 57 47 63 -2 6 -32 12 -68 14 -35 2 -68 7 -74 13 -5 5 -68 9 -140 9 -72 0 -135 4 -140 9 -6 6 -32 11 -60 13 l-50 3 0 725 0 725 130 3 c71 1 134 7 139 12 6 6 120 10 282 10 171 0 275 4 279 10 4 6 68 10 160 10 92 0 156 4 160 10 3 6 30 10 59 10 28 0 56 4 61 9 6 5 21 11 34 13 14 1 26 8 28 14 5 15 -136 158 -181 184 -20 11 -45 20 -56 20 -10 0 -22 5 -25 10 -3 6 -17 10 -30 10 -13 0 -27 5 -30 10 -3 6 -17 10 -30 10 -13 0 -27 5 -30 10 -3 6 -17 10 -30 10 -13 0 -27 5 -30 10 -3 6 -17 10 -30 10 -13 0 -27 5 -30 10 -3 6 -35 10 -70 10 -35 0 -67 4 -70 10 -3 6 -48 10 -100 10 -52 0 -97 4 -100 10 -4 6 -85 10 -210 10 -125 0 -206 4 -210 10 -4 6 -118 10 -310 10 -192 0 -306 4 -310 10 -4 6 -122 10 -320 10 -198 0 -316 4 -320 10 -4 6 -122 10 -320 10 -198 0 -316 4 -320 10 -4 6 -125 10 -330 10 -205 0 -326 4 -330 10 -4 6 -122 10 -320 10 -198 0 -316 4 -320 10 -9 14 -1741 14 -1750 0z"/>
 </g>

</svg>