<?xml version="1.0" encoding="utf-8"?>

<!DOCTYPE svg PUBLIC "-//W3C//DTD SVG 1.1//EN" "http://www.w3.org/Graphics/SVG/1.1/DTD/svg11.dtd">
<svg version="1.1" id="Layer_1" xmlns="http://www.w3.org/2000/svg" xmlns:xlink="http://www.w3.org/1999/xlink" x="0px" y="0px"
	 viewBox="0 0 2626 1650" enable-background="new 0 0 2626 1650" xml:space="preserve">
<g>
	<path d="M33,542.301l194.233,163.103c618.454-552.588,1553.147-552.522,2171.531-0.018L2593,542.281
		C1870.339-128.512,753.879-126.756,33,542.301z"/>
	<path d="M372.782,827.626L568.56,992.027c433.628-347.102,1055.248-347.107,1488.878-0.018l195.779-164.401
		C1712.941,362.752,912.995,362.812,372.782,827.626z"/>
	<path d="M715.785,1115.656l199.892,167.855c242.672-151.26,551.981-151.249,794.639-0.015l199.896-167.859
		C1556.153,852.898,1069.808,852.931,715.785,1115.656z"/>
	<path d="M1068.435,1411.786l236.227,198.367c5.552-0.147,11.102-0.147,16.654-0.001l234.997-197.334
		C1388.114,1332.936,1202.987,1351.709,1068.435,1411.786z"/>
</g>
</svg>
